<svg width="75" height="75" viewBox="0 0 75 75" fill="none" xmlns="http://www.w3.org/2000/svg">
<g id="fluent:navigation-16-filled">
<path id="Vector" d="M9.375 17.5781C9.375 16.6457 9.74539 15.7515 10.4047 15.0922C11.064 14.4329 11.9582 14.0625 12.8906 14.0625H62.1094C63.0418 14.0625 63.936 14.4329 64.5953 15.0922C65.2546 15.7515 65.625 16.6457 65.625 17.5781C65.625 18.5105 65.2546 19.4047 64.5953 20.064C63.936 20.7234 63.0418 21.0938 62.1094 21.0938H12.8906C11.9582 21.0938 11.064 20.7234 10.4047 20.064C9.74539 19.4047 9.375 18.5105 9.375 17.5781ZM9.375 36.3281C9.375 35.3957 9.74539 34.5015 10.4047 33.8422C11.064 33.1829 11.9582 32.8125 12.8906 32.8125H62.1094C63.0418 32.8125 63.936 33.1829 64.5953 33.8422C65.2546 34.5015 65.625 35.3957 65.625 36.3281C65.625 37.2605 65.2546 38.1547 64.5953 38.814C63.936 39.4734 63.0418 39.8438 62.1094 39.8438H12.8906C11.9582 39.8438 11.064 39.4734 10.4047 38.814C9.74539 38.1547 9.375 37.2605 9.375 36.3281ZM9.375 55.0781C9.375 54.1457 9.74539 53.2515 10.4047 52.5922C11.064 51.9329 11.9582 51.5625 12.8906 51.5625H62.1094C63.0418 51.5625 63.936 51.9329 64.5953 52.5922C65.2546 53.2515 65.625 54.1457 65.625 55.0781C65.625 56.0105 65.2546 56.9047 64.5953 57.564C63.936 58.2234 63.0418 58.5938 62.1094 58.5938H12.8906C11.9582 58.5938 11.064 58.2234 10.4047 57.564C9.74539 56.9047 9.375 56.0105 9.375 55.0781Z" fill="white"/>
</g>
</svg>
