<svg width="75" height="75" viewBox="0 0 75 75" fill="none" xmlns="http://www.w3.org/2000/svg">
<g id="mdi:account">
<path id="Vector" d="M37.5 12.5C40.8152 12.5 43.9946 13.817 46.3388 16.1612C48.683 18.5054 50 21.6848 50 25C50 28.3152 48.683 31.4946 46.3388 33.8388C43.9946 36.183 40.8152 37.5 37.5 37.5C34.1848 37.5 31.0054 36.183 28.6612 33.8388C26.317 31.4946 25 28.3152 25 25C25 21.6848 26.317 18.5054 28.6612 16.1612C31.0054 13.817 34.1848 12.5 37.5 12.5ZM37.5 43.75C51.3125 43.75 62.5 49.3438 62.5 56.25V62.5H12.5V56.25C12.5 49.3438 23.6875 43.75 37.5 43.75Z" fill="white"/>
</g>
</svg>
